<svg width="1400" height="484" viewBox="0 0 1400 484" fill="none" xmlns="http://www.w3.org/2000/svg">
<path d="M0 0H1400V484C845.382 465.19 538.755 464.964 0 484V0Z" fill="url(#paint0_linear_38_5437)"/>
<rect opacity="0.4" x="80" y="419.65" width="221.351" height="37.6767" rx="18.8384" transform="rotate(-32.1076 80 419.65)" fill="url(#paint1_linear_38_5437)"/>
<rect opacity="0.4" x="147.878" y="213.431" width="140.036" height="23.8359" rx="11.918" transform="rotate(-32.1076 147.878 213.431)" fill="url(#paint2_linear_38_5437)"/>
<rect opacity="0.4" x="900" y="120.431" width="140.036" height="23.8359" rx="11.918" transform="rotate(-32.1076 900 120.431)" fill="url(#paint3_linear_38_5437)"/>
<rect opacity="0.4" x="317" y="436.431" width="140.036" height="23.8359" rx="11.918" transform="rotate(-32.1076 317 436.431)" fill="url(#paint4_linear_38_5437)"/>
<rect opacity="0.6" x="796" y="337.65" width="221.351" height="37.6767" rx="18.8384" transform="rotate(-32.1076 796 337.65)" fill="url(#paint5_linear_38_5437)"/>
<circle cx="1112" cy="318" r="4" fill="#08BBE5"/>
<circle cx="1112" cy="318" r="4" fill="white" fill-opacity="0.8"/>
<circle cx="673" cy="186" r="4" fill="#08BBE5"/>
<circle cx="673" cy="186" r="4" fill="white" fill-opacity="0.8"/>
<g opacity="0.5">
<circle cx="398" cy="324" r="4" fill="#08BBE5"/>
<circle cx="398" cy="324" r="4" fill="white" fill-opacity="0.8"/>
</g>
<circle cx="1260" cy="338" r="4" fill="#08BBE5"/>
<circle cx="1260" cy="338" r="4" fill="white" fill-opacity="0.8"/>
<g opacity="0.6">
<circle cx="330" cy="229" r="3" fill="#08BBE5"/>
<circle cx="330" cy="229" r="3" fill="white" fill-opacity="0.8"/>
</g>
<defs>
<linearGradient id="paint0_linear_38_5437" x1="95.5" y1="84.6516" x2="1047.16" y2="761.25" gradientUnits="userSpaceOnUse">
<stop stop-color="#1F0098"/>
<stop offset="1" stop-color="#05D7F0"/>
</linearGradient>
<linearGradient id="paint1_linear_38_5437" x1="94.8533" y1="440.564" x2="252.891" y2="437.913" gradientUnits="userSpaceOnUse">
<stop stop-color="white" stop-opacity="0.3"/>
<stop offset="1" stop-color="white" stop-opacity="0"/>
</linearGradient>
<linearGradient id="paint2_linear_38_5437" x1="157.275" y1="226.662" x2="257.256" y2="224.985" gradientUnits="userSpaceOnUse">
<stop stop-color="white" stop-opacity="0.3"/>
<stop offset="1" stop-color="white" stop-opacity="0"/>
</linearGradient>
<linearGradient id="paint3_linear_38_5437" x1="909.397" y1="133.662" x2="1009.38" y2="131.985" gradientUnits="userSpaceOnUse">
<stop stop-color="white" stop-opacity="0.3"/>
<stop offset="1" stop-color="white" stop-opacity="0"/>
</linearGradient>
<linearGradient id="paint4_linear_38_5437" x1="326.397" y1="449.662" x2="426.378" y2="447.985" gradientUnits="userSpaceOnUse">
<stop stop-color="white" stop-opacity="0.3"/>
<stop offset="1" stop-color="white" stop-opacity="0"/>
</linearGradient>
<linearGradient id="paint5_linear_38_5437" x1="810.853" y1="358.564" x2="968.891" y2="355.913" gradientUnits="userSpaceOnUse">
<stop stop-color="white" stop-opacity="0.3"/>
<stop offset="1" stop-color="white" stop-opacity="0"/>
</linearGradient>
</defs>
</svg>
